<?xml version="1.0" standalone="no"?>
<!DOCTYPE svg PUBLIC "-//W3C//DTD SVG 20010904//EN"
 "http://www.w3.org/TR/2001/REC-SVG-20010904/DTD/svg10.dtd">
<svg version="1.0" xmlns="http://www.w3.org/2000/svg"
 width="500.000000pt" height="500.000000pt" viewBox="0 0 500.000000 500.000000"
 preserveAspectRatio="xMidYMid meet">

<g transform="translate(0.000000,500.000000) scale(0.100000,-0.100000)"
fill="#000000" stroke="none">
<path d="M2810 3744 c-63 -47 -127 -92 -142 -100 -31 -16 -80 -98 -53 -88 13
5 15 -15 15 -147 l1 -154 30 35 c17 19 93 113 169 207 137 171 138 172 92 148
-26 -13 -67 -38 -92 -54 -46 -32 -70 -39 -70 -21 0 5 38 66 84 135 47 69 84
125 83 125 -1 0 -54 -39 -117 -86z"/>
<path d="M2565 3704 c-425 -343 -422 -340 -522 -502 -187 -305 -294 -472 -366
-570 -43 -59 -99 -136 -124 -172 -24 -36 -84 -117 -133 -180 -48 -63 -87 -116
-86 -117 1 -1 115 -3 254 -4 139 0 254 -4 257 -8 5 -8 -52 -105 -188 -323 -47
-76 -83 -139 -79 -142 15 -9 524 -6 541 3 10 6 60 69 111 141 51 71 96 130
101 130 5 0 9 60 9 134 l0 134 73 54 c39 30 104 76 142 103 39 27 112 79 163
115 93 65 270 180 277 180 2 0 -42 -69 -98 -153 -56 -83 -144 -220 -195 -302
-233 -375 -302 -488 -302 -494 0 -3 -13 -26 -30 -51 l-29 -44 -3 119 -3 120
-53 -83 c-30 -46 -64 -114 -77 -150 -20 -59 -134 -283 -171 -337 -23 -33 -16
-39 19 -13 118 90 212 146 224 134 2 -2 -4 -21 -15 -43 -26 -53 -85 -224 -78
-230 5 -5 96 65 308 237 90 73 116 101 189 207 73 107 88 123 112 123 15 0 27
-3 27 -6 0 -3 -25 -42 -55 -86 -31 -44 -54 -82 -53 -84 2 -1 36 19 75 46 76
52 133 84 133 75 0 -3 -11 -27 -24 -53 -31 -61 -71 -159 -80 -197 -7 -28 37
38 169 254 28 45 89 136 138 202 55 76 79 115 65 108 -13 -7 -52 -30 -88 -52
-36 -22 -69 -42 -74 -45 -10 -6 -6 3 39 73 44 68 229 366 240 385 12 23 -13
-3 -75 -80 -83 -101 -173 -200 -178 -195 -3 3 34 63 81 134 48 71 87 132 87
135 0 5 190 290 347 520 18 26 33 52 33 57 0 5 -117 9 -270 9 l-271 0 41 58
c22 31 63 91 92 132 28 41 69 96 90 121 21 25 38 48 38 52 0 4 -123 7 -274 7
-313 0 -286 7 -377 -102 l-49 -59 0 -134 0 -135 -42 -27 c-46 -30 -282 -195
-409 -287 -131 -94 -290 -198 -295 -194 -2 3 4 16 15 29 10 14 44 74 73 134
30 61 79 153 108 205 29 52 73 133 98 180 24 47 82 151 129 232 46 81 91 164
99 185 9 20 55 105 103 188 95 163 153 265 149 264 -2 0 -39 -30 -83 -65z
m564 -878 c-16 -16 -150 -109 -279 -196 -85 -56 -177 -120 -206 -141 -29 -21
-100 -70 -158 -109 l-105 -70 -242 0 -242 0 49 35 c118 85 285 203 361 254 45
31 132 92 195 136 l113 80 245 5 c135 3 251 7 259 8 8 1 12 0 10 -2z"/>
<path d="M2145 3666 c-41 -55 -168 -245 -206 -307 -26 -42 -72 -115 -103 -162
-31 -48 -56 -90 -56 -93 0 -4 -16 -29 -35 -55 -19 -27 -33 -49 -30 -49 3 0 36
20 73 45 37 25 68 41 70 36 2 -5 -13 -34 -33 -65 -20 -31 -39 -64 -42 -74 -4
-9 -18 -35 -32 -57 -13 -22 -44 -74 -68 -115 l-44 -75 50 55 c52 56 220 301
306 445 27 44 86 136 133 205 46 69 74 115 61 104 -35 -32 -170 -116 -176
-110 -3 3 3 18 13 33 25 40 134 246 131 249 -1 2 -7 -3 -12 -10z"/>
</g>
</svg>
